<?xml version="1.0" standalone="no"?>
<!DOCTYPE svg PUBLIC "-//W3C//DTD SVG 20010904//EN"
 "http://www.w3.org/TR/2001/REC-SVG-20010904/DTD/svg10.dtd">
<svg version="1.0" xmlns="http://www.w3.org/2000/svg"
 width="512.000000pt" height="512.000000pt" viewBox="0 0 512.000000 512.000000"
 preserveAspectRatio="xMidYMid meet">

<g transform="translate(0.000000,512.000000) scale(0.100000,-0.100000)"
fill="#000000" stroke="none">
<path d="M1920 4160 l0 -320 640 0 640 0 0 320 0 320 -640 0 -640 0 0 -320z"/>
<path d="M0 2240 l0 -960 320 0 320 0 0 640 0 640 320 0 320 0 0 -640 0 -640
320 0 320 0 0 640 0 640 320 0 320 0 0 -320 0 -320 320 0 320 0 0 -320 0 -320
320 0 320 0 0 640 0 640 320 0 320 0 0 -640 0 -640 320 0 320 0 0 960 0 960
-1600 0 -1600 0 0 -320 0 -320 -320 0 -320 0 0 320 0 320 -640 0 -640 0 0
-960z"/>
</g>
</svg>
